<svg width="159" height="67" viewBox="0 0 159 67" fill="none" xmlns="http://www.w3.org/2000/svg">
<path d="M8.28159 58.0463C12.6097 58.0463 16.3551 55.6045 16.3551 51.7556C16.3551 44.0992 4.661 47.1203 4.661 42.9817C4.661 41.3677 6.32564 40.3744 8.23997 40.3744C10.1127 40.3744 11.7773 40.9952 12.6513 42.7748L15.8141 40.9952C14.524 38.6362 11.9438 36.898 8.15674 36.898C3.70383 36.898 0.541009 39.5053 0.541009 43.0645C0.541009 50.8037 12.2351 47.5756 12.2351 51.8383C12.2351 53.6179 10.4456 54.5698 8.11513 54.5698C5.86786 54.5698 4.20322 53.8249 3.16282 51.797L0 53.5352C1.58141 56.5564 4.49453 58.0463 8.28159 58.0463Z" fill="#F9FAFB"/>
<path d="M23.3573 66.9029V55.0665C25.022 56.8874 27.5189 58.0876 30.2656 58.0876C36.4664 58.0876 40.9193 53.5352 40.9193 47.41C40.9193 41.616 36.2583 36.8152 30.0991 36.8152C23.9399 36.8152 19.2373 41.3677 19.2373 47.41V66.9029H23.3573ZM30.0991 54.2387C26.2704 54.2387 23.3573 51.1348 23.3573 47.4514C23.3573 43.7267 26.2704 40.7055 30.0991 40.7055C33.8862 40.7055 36.7993 43.7267 36.7993 47.4514C36.7993 51.1348 33.8862 54.2387 30.0991 54.2387Z" fill="#F9FAFB"/>
<path d="M44.324 28V57.591H48.444V28H44.324Z" fill="#F9FAFB"/>
<path d="M62.0222 58.0876C65.3515 58.0876 68.0565 56.515 69.5963 54.0318V57.591H73.5082V47.41C73.5082 41.3677 68.8056 36.8152 62.6464 36.8152C56.4456 36.8152 51.7846 41.616 51.7846 47.41C51.7846 53.2869 56.1127 58.0876 62.0222 58.0876ZM62.6464 54.1973C58.8594 54.1973 55.9046 51.1348 55.9046 47.4514C55.9046 43.7267 58.8594 40.6641 62.6464 40.6641C66.4751 40.6641 69.3882 43.7267 69.3882 47.4514C69.3882 51.1348 66.4751 54.1973 62.6464 54.1973Z" fill="#F9FAFB"/>
<path d="M84.6535 58.0463C88.9816 58.0463 92.727 55.6045 92.727 51.7556C92.727 44.0992 81.0329 47.1203 81.0329 42.9817C81.0329 41.3677 82.6975 40.3744 84.6119 40.3744C86.4846 40.3744 88.1492 40.9952 89.0232 42.7748L92.186 40.9952C90.8959 38.6362 88.3157 36.898 84.5286 36.898C80.0757 36.898 76.9129 39.5053 76.9129 43.0645C76.9129 50.8037 88.607 47.5756 88.607 51.8383C88.607 53.6179 86.8175 54.5698 84.487 54.5698C82.2398 54.5698 80.5751 53.8249 79.5347 51.797L76.3719 53.5352C77.9533 56.5564 80.8664 58.0463 84.6535 58.0463Z" fill="#F9FAFB"/>
<path d="M100.562 57.591V47.5342C100.562 43.6025 103.1 40.7055 106.721 40.7055C110.591 40.7055 112.589 43.8095 112.589 47.41V57.591H116.709V46.9962C116.709 40.7883 113.338 36.8152 107.345 36.8152C104.598 36.8152 102.143 37.8913 100.562 39.5881V28H96.4416V57.591H100.562Z" fill="#F9FAFB"/>
<path d="M148.213 57.9543L140.777 46.7743L134.225 57.9543H124.137L135.837 39.3903L123.877 21.4503H134.225L141.557 32.4743L148.005 21.4503H158.093L146.497 39.8583L158.561 57.9543H148.213Z" fill="white"/>
</svg>
